<svg xmlns="http://www.w3.org/2000/svg" width="350mm" height="200mm" viewBox="0 0 992.13 566.93">
  <defs>
    <style>
      .cls-1 {
        isolation: isolate;
      }

      .cls-2 {
        fill: #b17f4a;
      }

      .cls-3 {
        fill: #1d1d1b;
      }

      .cls-4, .cls-5, .cls-6 {
        fill: #2fac66;
      }

      .cls-5, .cls-6 {
        mix-blend-mode: multiply;
      }

      .cls-5 {
        opacity: 0.5;
      }

      .cls-6 {
        opacity: 0.4;
      }

      .cls-7 {
        fill: #1d71b8;
      }
    </style>
  </defs>
  <g class="cls-1">
    <g id="Layer_1" data-name="Layer 1">
      <circle class="cls-2" cx="568.4" cy="386.4" r="143.49"/>
      <circle class="cls-3" cx="555.18" cy="287.18" r="3.28"/>
      <circle class="cls-3" cx="635.38" cy="293.74" r="3.28"/>
      <circle class="cls-3" cx="591.33" cy="323.49" r="3.28"/>
      <circle class="cls-3" cx="635.38" cy="343.38" r="3.28"/>
      <circle class="cls-3" cx="635.38" cy="394.84" r="3.28"/>
      <circle class="cls-3" cx="591.33" cy="383.12" r="3.28"/>
      <circle class="cls-3" cx="537.7" cy="336.82" r="3.28"/>
      <circle class="cls-3" cx="495.56" cy="297.01" r="3.28"/>
      <circle class="cls-3" cx="473.77" cy="349.93" r="3.28"/>
      <circle class="cls-3" cx="467.22" cy="404.06" r="3.28"/>
      <circle class="cls-3" cx="540.98" cy="391.56" r="3.28"/>
      <circle class="cls-3" cx="514.38" cy="446.14" r="3.28"/>
      <circle class="cls-3" cx="571.68" cy="437.22" r="3.28"/>
      <circle class="cls-3" cx="641.94" cy="460.69" r="3.28"/>
      <circle class="cls-3" cx="571.68" cy="489.76" r="3.28"/>
      <circle class="cls-3" cx="677.7" cy="386.4" r="3.28"/>
      <g>
        <path class="cls-4" d="M385.52,156.45S410.64,161.38,433,159l6.49,8.59-7.33,4.3s-66.76,18.45-78.48,15.45Z"/>
        <path class="cls-5" d="M426.63,165.15c-9.82,4.31-20.53,6.23-31.17,6.78-8.09.43-16.42.44-24.33-1.51l-17.42,16.94c11.72,3,78.48-15.45,78.48-15.45l7.33-4.3-5-6.61A56.44,56.44,0,0,1,426.63,165.15Z"/>
        <path class="cls-4" d="M433,159s.84,8.48-.84,12.89c0,0,18.95,13.3,21,13.41s5.67-34.84,4.19-41.11C456.37,139.81,433,159,433,159Z"/>
        <path class="cls-5" d="M454.55,164.31c-2.53,3.49-6.33,7.36-11,6.77a11.23,11.23,0,0,1-7-3.36,23,23,0,0,1-3.4-6.07c.12,2.86.09,7.41-1,10.26,0,0,18.95,13.3,21,13.41,1.31.07,3.21-13.66,4.08-25.45A43.46,43.46,0,0,1,454.55,164.31Z"/>
        <path class="cls-4" d="M457.42,144.21c-.28-1.15-2.09-.68-4.61.64a99.17,99.17,0,0,1,.73,10.1c.29,5.63.46,11.28.35,16.93-.1,4.42-.17,8.91-.49,13.36C455.5,183.61,458.86,150.31,457.42,144.21Z"/>
        <path class="cls-4" d="M291.86,144.91c-.09-.11-.26-.29-.49-.54-29.88-32.77-34.43-66.05-12.18-89,29.92-30.86,65.34-11.86,79.88,2.5l-7,7.43c-1.43-1.41-35.41-34-65.79-2.66-25.92,26.73,0,61.15,12.39,74.7A6.76,6.76,0,0,1,300.5,140L291,143.26A4.83,4.83,0,0,0,291.86,144.91Z"/>
        <path class="cls-5" d="M335.5,49a57,57,0,0,0-24.16-4.11,44.71,44.71,0,0,0-30.66,14.34,42.86,42.86,0,0,0-11.16,28.85c0,9.51,5.43,18,5.59,27.46a17.73,17.73,0,0,1-.74,5.44,122.7,122.7,0,0,0,17,23.35c.23.25.4.43.49.54a4.83,4.83,0,0,1-.89-1.65L300.5,140a6.76,6.76,0,0,0-1.79-2.68c-12.36-13.55-38.31-48-12.39-74.7,30.38-31.36,64.36,1.25,65.79,2.66l7-7.43c-.35-.35-.72-.7-1.09-1-7.32,1.86-15-4.63-21.34-7.3Z"/>
        <path class="cls-4" d="M433.73,68.94C431.29,67.06,404,83,395.88,87.82,379.36,70.71,361.22,53,359.36,53.63c-5,1.72-79.81,85-79.26,90.44s63.63,59,66.14,59,77.31-81.57,77.31-84.43C428.84,111.59,436.52,71.09,433.73,68.94Z"/>
        <path class="cls-5" d="M429.41,86.13c-7.91,7-19.37,10.19-29.1,5.36A14.68,14.68,0,0,1,396,87.81s19,18.64,28,30.08c3.42-5.59,7.64-23.65,9.44-36.23A26.54,26.54,0,0,1,429.41,86.13Z"/>
        <path class="cls-6" d="M377.49,160.81c-10.69,5.77-23,8.81-35.09,7.77-14.66-1.26-28.07-8.51-36.16-21.37-5-8-8.91-18-7.69-27.75-10.8,12.79-18.63,22.84-18.45,24.61.56,5.44,63.63,59,66.14,59s77.31-81.57,77.31-84.43C424.42,117.44,395.24,151.26,377.49,160.81Z"/>
        <path class="cls-4" d="M321.69,98.27S359.15,56,360.2,56.42s34.32,34.13,34.32,34.13-24.7-18-33.49-19.1S321.69,98.27,321.69,98.27Z"/>
      </g>
      <g>
        <g>
          <path class="cls-7" d="M468.51,149a.71.71,0,0,1-.2,0c-5-.83-9.39-1.66-9.35-2.36s4.6-1,9.76-.17a1.29,1.29,0,0,1-.21,2.55Z"/>
          <path class="cls-7" d="M529.23,180.07a1.21,1.21,0,0,1-.91-.4c-3.81-4.16-13.54-12.65-13.14-13.23s11,7.19,15,11.46a1.31,1.31,0,0,1-.06,1.82A1.2,1.2,0,0,1,529.23,180.07Zm-27.91-20.56a1.29,1.29,0,0,1-.54-.12c-5-2.47-16.95-7.3-16.74-8s12.71,3.14,17.82,5.66a1.29,1.29,0,0,1,.59,1.71A1.24,1.24,0,0,1,501.32,159.51Z"/>
          <path class="cls-7" d="M543.7,201.69a1.24,1.24,0,0,1-1.13-.74c-1.18-2.56-4.06-8.85-3.47-9.23s4.52,5.49,5.74,8.13a1.29,1.29,0,0,1-.6,1.71A1.19,1.19,0,0,1,543.7,201.69Z"/>
        </g>
        <g>
          <path class="cls-7" d="M467.12,158.5a1.19,1.19,0,0,1-.41-.08c-4.87-1.74-9-2.89-8.91-3.59s4.59-.68,9.73,1.16a1.31,1.31,0,0,1,.78,1.64A1.28,1.28,0,0,1,467.12,158.5Z"/>
          <path class="cls-7" d="M523.49,205.56a1.27,1.27,0,0,1-1-.53c-3.7-5.19-12-15.88-11.48-16.36s9.75,9.57,13.51,14.84a1.28,1.28,0,0,1-1,2.05Zm-24.88-27.8a1.27,1.27,0,0,1-.81-.3c-4.79-4.17-15.53-12.14-15.17-12.75s11.91,6.53,16.8,10.78a1.32,1.32,0,0,1,.14,1.82A1.24,1.24,0,0,1,498.61,177.76Z"/>
          <path class="cls-7" d="M537.88,228.77a1.29,1.29,0,0,1-1.11-.66c-1.36-2.54-4.32-8.81-3.73-9.17s4.55,5.36,5.93,7.92a1.31,1.31,0,0,1-.48,1.75A1.26,1.26,0,0,1,537.88,228.77Z"/>
        </g>
        <g>
          <path class="cls-7" d="M467.63,172.44a1.25,1.25,0,0,1-.56-.14c-4.69-2.45-8.59-3.64-8.49-4.35s4.51-.62,9.62,2.05a1.3,1.3,0,0,1,.55,1.73A1.25,1.25,0,0,1,467.63,172.44Z"/>
          <path class="cls-7" d="M514.51,222.53a1.25,1.25,0,0,1-1.06-.59c-3.17-5.08-10-15.73-9.41-16.15s8.32,9.63,11.53,14.76a1.32,1.32,0,0,1-.38,1.78A1.22,1.22,0,0,1,514.51,222.53Zm-20.55-28a1.28,1.28,0,0,1-.93-.42c-4-4.59-12.71-13.4-12.26-13.94s10,7.54,14.12,12.21a1.3,1.3,0,0,1-.09,1.82A1.24,1.24,0,0,1,494,194.54Z"/>
          <path class="cls-7" d="M527.4,245.1a1.25,1.25,0,0,1-1.11-.68c-1.36-2.59-4.17-8.9-3.56-9.25s4.4,5.43,5.77,8A1.3,1.3,0,0,1,528,245,1.25,1.25,0,0,1,527.4,245.1Z"/>
        </g>
        <g>
          <path class="cls-7" d="M465.57,186.31a1.22,1.22,0,0,1-.72-.24c-4.24-3.07-8-4.88-7.78-5.56s4.62.11,9.22,3.46a1.29,1.29,0,0,1,.31,1.79A1.24,1.24,0,0,1,465.57,186.31Z"/>
          <path class="cls-7" d="M487.83,212.12a1.27,1.27,0,0,1-1.07-.61c-3.12-5.14-10.2-15.2-9.68-15.67s8.62,9,11.82,14.31a1.31,1.31,0,0,1-.41,1.77A1.22,1.22,0,0,1,487.83,212.12Z"/>
          <path class="cls-7" d="M499.43,235.14a1.24,1.24,0,0,1-1.15-.78c-1.11-2.64-3.49-9.17-2.87-9.48s4,5.79,5.17,8.46a1.31,1.31,0,0,1-.65,1.7A1.24,1.24,0,0,1,499.43,235.14Z"/>
        </g>
        <g>
          <path class="cls-7" d="M462.72,193.55a1.24,1.24,0,0,1-1.06-.6c-2.65-4.33-5.12-8.2-4.6-8.66s4,2.79,6.73,7.29a1.32,1.32,0,0,1-.4,1.78A1.26,1.26,0,0,1,462.72,193.55Z"/>
          <path class="cls-7" d="M473.49,220.7a1.28,1.28,0,0,1-1.24-1c-.91-4.61-4.09-15.25-3.45-15.52s5,10.23,5.92,15a1.29,1.29,0,0,1-1,1.52A1.1,1.1,0,0,1,473.49,220.7Z"/>
          <path class="cls-7" d="M474.19,243.91l-.19,0a1.29,1.29,0,0,1-1.05-1.46c.4-2.77,1.22-9.72,1.93-9.66s1,7.15.55,10A1.27,1.27,0,0,1,474.19,243.91Z"/>
        </g>
      </g>
    </g>
  </g>
</svg>
