<svg id="Layer_1" data-name="Layer 1" xmlns="http://www.w3.org/2000/svg" width="350mm" height="200mm" viewBox="0 0 992.13 566.93">
  <defs>
    <style>
      .cls-1 {
        fill: #b17f4a;
      }

      .cls-2 {
        fill: #1d1d1b;
      }

      .cls-3 {
        fill: none;
        stroke: #1d1d1b;
        stroke-width: 2.29px;
        stroke-dasharray: 11.96;
      }
    </style>
  </defs>
  <rect class="cls-1" x="296.25" y="100.93" width="357.8" height="357.8" rx="37.89"/>
  <path class="cls-2" d="M752,373a22.42,22.42,0,0,0-13.65-2.57h0c-13.85-8.23-11.81-18.8-10.8-22,2.12-2.57,9.89-10,24.32-2.83h0a22.58,22.58,0,1,0,.53-20.56,16.74,16.74,0,0,0-2.08,4.73l-.61.22-28.54,5.28-25-50.84s-1.87-9.06-19.77-17c3.28,8.34,25.32,59.75,29.37,69.17-10.11,1.71-65.26,11.06-74,12.83,16.39,10.73,25,7.39,25,7.39L713,350.22l11,26.85.15.62a16.88,16.88,0,0,0-2.85,4.32A22.59,22.59,0,1,0,752,373Zm26.72-49a13.54,13.54,0,1,1-18.37,5.42A13.55,13.55,0,0,1,778.7,324Zm-44,80.76a13.54,13.54,0,1,1,18.36-5.41A13.55,13.55,0,0,1,734.7,404.71Z"/>
  <circle class="cls-3" cx="474.39" cy="275.2" r="135.62"/>
</svg>
