<svg id="Layer_1" data-name="Layer 1" xmlns="http://www.w3.org/2000/svg" width="700mm" height="221mm" viewBox="0 0 1984.25 626.47">
  <defs>
    <style>
      .cls-1 {
        fill: #1d1d1b;
      }
    </style>
  </defs>
  <g>
    <path class="cls-1" d="M48,428.45V416.66q13.57-.71,18.58-6.25t5.53-15.36q.54-9.81.54-22.32V218.44q0-7.14.36-13.75t.71-12l-12.86.71L48,194.16V178.44H213.75l1.79,62.5H203.75q0-21.06-6.78-32t-17.86-14.65a70.81,70.81,0,0,0-24.64-3.39l-26.08.72q-13.21.36-18.21,6.25t-5.72,15.53q-.72,9.65-.71,22.15V297l62.14.36-2.5-31.07h15.72v75.36H167.68q0-16.08-4.46-22.86t-13.75-8.21q-9.3-1.43-24.29-.72l-21.43,1.07v75q0,9.65-.18,16.61a95.68,95.68,0,0,1-.89,11.61q6.06-.35,12.14-.54t12.14-.53q6.08-.36,12.15-.36v15.72Z"/>
    <path class="cls-1" d="M236.25,417.73q11.07,0,15.36-5.53t5-15.36q.7-9.82.71-22.68V205.23q0-5.72.18-10.9t.89-12.32l-12.68.72q-6.26.36-12.68.71v-15q15.72,0,24.47-1.43t13.21-3.57a25.24,25.24,0,0,0,7-4.64H288l.36,231.79q0,7.14-.36,12.68a104.93,104.93,0,0,1-1.42,11.6q5.7-.35,11.25-.53t11.25-.54v14.65H236.25Z"/>
    <path class="cls-1" d="M425.53,434.16q-25,0-45.36-11.61a86.32,86.32,0,0,1-32.32-32.14q-12-20.54-12-47,0-28.2,11.78-50.71a92.06,92.06,0,0,1,32.15-35.54q20.35-13,45.71-13,25,0,45.36,12a91,91,0,0,1,32.5,32.32q12.14,20.35,12.14,46.43,0,27.51-12,50.18A94.41,94.41,0,0,1,471.25,421,82.22,82.22,0,0,1,425.53,434.16Zm2.86-14.29q18.93,0,30-10.71t15.89-27.86a132.4,132.4,0,0,0,4.83-36.07,164.82,164.82,0,0,0-3-31.61,108.11,108.11,0,0,0-9.46-28.21A56.06,56.06,0,0,0,450,265.23q-10.19-7.5-24.47-7.5-18.57,0-30.35,10.71T377.85,296.3a119.1,119.1,0,0,0-5.53,36.79,142.39,142.39,0,0,0,6.07,42q6.06,19.83,18.57,32.32T428.39,419.87Z"/>
    <path class="cls-1" d="M603.75,429.52,557,292.37q-2.51-7.5-4.46-12.86t-3-9.28c-.71-2.62-1.31-4.88-1.78-6.79l-18.93,1.07V249.87h75.71v10.72q-16.07.36-17.68,10.89t4.11,27.68l16.43,50q2.85,8.56,5.72,17.32t5.71,17.32q3.21-9.65,6.61-19.46t6.6-19.82l31.79-94.65h14.64L714.47,353.8q2.85,7.86,5.71,16.07t5.71,16.43q2.86-7.85,5.54-15.53t5.18-15.54l23.57-67.86q2.49-7.14,5-13.57a37.92,37.92,0,0,1,5.72-10.36l-20.72,1.07V249.87h62.14v10.72a50.84,50.84,0,0,0-15.17,2.5,29.17,29.17,0,0,0-9.83,5.71,28.81,28.81,0,0,0-6.42,8.57,87.37,87.37,0,0,0-4.65,11.43L724.82,429.52H710.54L676.61,332q-2.15-6.43-4.29-12.68T668,306.84c-1.43-4.17-2.86-8.27-4.29-12.33-1.43,4.06-2.86,8.16-4.29,12.33s-2.85,8.33-4.28,12.5-2.86,8.39-4.29,12.68l-33.57,97.5Z"/>
    <path class="cls-1" d="M910.54,434.16q-24.64,0-44.46-11.61a82.19,82.19,0,0,1-31.25-32.86q-11.45-21.24-11.43-50.17a100.52,100.52,0,0,1,11.25-46.79,91.88,91.88,0,0,1,31.6-35.18q20.37-13.4,47.15-13.39a80,80,0,0,1,28,4.82,64.52,64.52,0,0,1,23,14.64,68.68,68.68,0,0,1,15.71,24.64q5.72,14.83,5.72,34.83l-125.72,2.14q0,27.15,5.9,47.68t19.1,31.79Q898.4,416,919.11,416A70.51,70.51,0,0,0,941.79,412,89.12,89.12,0,0,0,963.4,401.3a65.23,65.23,0,0,0,16.07-15l8.57,7.15a79.61,79.61,0,0,1-23.21,23.92A97.73,97.73,0,0,1,937,430.23,100.2,100.2,0,0,1,910.54,434.16ZM861.25,310.23h91.08a82.52,82.52,0,0,0-3.75-24.82,43.12,43.12,0,0,0-12.32-19.65q-8.58-7.67-22.5-7.67-20.73,0-34.47,12.32T861.25,310.23Z"/>
    <path class="cls-1" d="M1017.68,417.73q11.07,0,15.36-5.53t5-15.36q.7-9.82.71-22.68V292.73q0-5.72.18-11.43a83.69,83.69,0,0,1,1.25-11.79q-6.42.36-12.68.54t-12.67.54V255.94h11.07q15.35,0,21.25-3a45.39,45.39,0,0,0,9.82-6.61h10.36q.7,5.72,1.07,14.11t.71,21.25a80.42,80.42,0,0,1,14.64-17.5,87.61,87.61,0,0,1,20.9-14.29,54.64,54.64,0,0,1,24.46-5.71,29.32,29.32,0,0,1,17.5,5.35q7.5,5.37,7.5,17.15a19.36,19.36,0,0,1-7.5,14.1q-3.93,3-10.35,3a16,16,0,0,1-12.5-6.25,17.5,17.5,0,0,1-3.58-13.75q-8.92-.35-18.39,4.64a68,68,0,0,0-17.68,13.75,99.35,99.35,0,0,0-14.64,20.54l.36,87.86q0,7.14-.18,12.68a84.2,84.2,0,0,1-1.25,11.6q5.7-.35,11.25-.53t11.25-.54v14.65h-73.22Z"/>
    <path class="cls-1" d="M1303.05,432q-15.72-35.72-31.79-71.25t-31.43-72q-5-11.43-9.82-23t-9.28-23.39q-4.47-11.79-9.11-23.57,0,3.93-.18,7.86t-.18,7.85q-.36,12.87-.89,30.9T1209.12,304q-.72,20.53-1.07,41.07t-.72,38.75q-.36,7.86-.53,15.72c-.13,5.24-.42,10.12-.9,14.64l13.4-.71,13.39-.72v15.72h-68.21V416.66q11.05-.35,16.25-4.82a20.31,20.31,0,0,0,6.6-12,111,111,0,0,0,1.79-16.07l6.78-162.86q.36-7.14.54-14.28t.54-13.93q-6.43.36-12.86.53c-4.29.13-8.57.3-12.86.54V178.44h54.64l61.43,141.79q4.65,10.71,9.11,21.43t9.29,21.43q4.82,10.71,9.46,21.78h.72q3.91-9.64,9.28-23t8.93-23q15.72-39.29,32.68-78.75t33.39-81.61h52.86v11.79q-8.92-.36-14.64,3.39t-8.22,12.32q-2.49,8.58-1.78,23.22l9.28,162.5a100.19,100.19,0,0,1,.72,11.79V413.8q6.42-.35,13-.53t13-.54v15.72h-80V416.66q11.07-.35,16.43-5.36t6.6-14.28a125.73,125.73,0,0,0,.54-22.86l-7.14-117.86-.72-11.43c-.24-3.8-.48-7.62-.71-11.43l-.72-11.43c-.71,1.67-1.49,3.46-2.32,5.36s-1.6,3.93-2.32,6.07L1313.76,432Z"/>
    <path class="cls-1" d="M1600.91,428.45q-1.07-6.07-1.43-10.72c-.24-3.09-.59-6.3-1.07-9.64a99.49,99.49,0,0,1-26.25,19.11,66.56,66.56,0,0,1-29.82,7q-27.15,0-40.36-12.32a39.67,39.67,0,0,1-13.21-30.18A42.39,42.39,0,0,1,1499,363.27q10.17-12,26.42-19.65a150.56,150.56,0,0,1,35.36-11.43,174.25,174.25,0,0,1,37-3.39V306.66a123.83,123.83,0,0,0-2.15-23.57,34.25,34.25,0,0,0-9.28-18.22q-7.15-7.14-22.86-7.5a52.84,52.84,0,0,0-21.25,3.93,28.64,28.64,0,0,0-15.89,14.64,13.8,13.8,0,0,1,3.75,6.61,30.45,30.45,0,0,1,.89,7q0,4.29-3.57,9.83t-12.5,5.18q-7.5,0-11.43-5.18a19.8,19.8,0,0,1-3.93-12.33q0-12.13,9.11-21.78t25.18-15.36q16.07-5.72,36.43-5.71,30,0,44.28,15.89t13.93,50.18v26.61q0,13.4-.18,26.78t-.18,27q0,5.71-.35,11.43t-1.07,12.85l12.67-.71,12.68-.71v15Zm-3.21-87.51a153.16,153.16,0,0,0-25.54,3,104.73,104.73,0,0,0-24.64,8,50.72,50.72,0,0,0-18.22,14.1q-7,8.76-6.6,21.25.71,13.23,8.75,19.83a29.13,29.13,0,0,0,19.1,6.6q14.64,0,25.54-5.53a95.35,95.35,0,0,0,21.61-15.54c-.24-2.62-.36-5.47-.36-8.57v-9.64q0-1.78.18-11.43T1597.7,340.94Z"/>
    <path class="cls-1" d="M1741.27,434.16a64.28,64.28,0,0,1-16.78-2.32,37.8,37.8,0,0,1-15.9-9.11q-7.32-6.78-11.61-19.82t-4.28-34.47l.71-103.57-27.5.36V249.87q9.28-.35,18.93-7a66.28,66.28,0,0,0,17.32-18,70.5,70.5,0,0,0,10.54-25h12.14v50h60V263.8l-60,.71-.71,99.29q0,16.08,2.68,27.32t8.75,17q6.06,5.71,15.71,5.71a33.7,33.7,0,0,0,18.75-5.71,56,56,0,0,0,15.54-15.72l9.64,7.86q-7.86,11.79-15.54,18.57A64.66,64.66,0,0,1,1764.84,429a47.46,47.46,0,0,1-13.21,4.29A73.66,73.66,0,0,1,1741.27,434.16Z"/>
    <path class="cls-1" d="M1883.05,434.16a64.34,64.34,0,0,1-16.78-2.32,37.71,37.71,0,0,1-15.89-9.11q-7.34-6.78-11.61-19.82t-4.29-34.47l.72-103.57-27.5.36V249.87q9.29-.35,18.92-7a66.46,66.46,0,0,0,17.33-18,70.66,70.66,0,0,0,10.53-25h12.15v50h60V263.8l-60,.71-.72,99.29q0,16.08,2.68,27.32t8.75,17q6.08,5.71,15.71,5.71a33.7,33.7,0,0,0,18.76-5.71,55.8,55.8,0,0,0,15.53-15.72l9.64,7.86q-7.86,11.79-15.53,18.57A64.66,64.66,0,0,1,1906.63,429a47.52,47.52,0,0,1-13.22,4.29A73.66,73.66,0,0,1,1883.05,434.16Z"/>
  </g>
</svg>
